<svg xmlns="http://www.w3.org/2000/svg" viewBox="0 0 307.34 398.59"><defs><style>.cls-1{fill:#fff;}</style></defs><g id="Слой_2" data-name="Слой 2"><g id="Слой_1-2" data-name="Слой 1"><path class="cls-1" d="M132.5,199.31v183c0,12-4.25,16.25-16.23,16.25H15.42C4.55,398.58,0,394.05,0,383.25V15.11C0,4.51,4.5,0,15.13,0h102.1c10.84,0,15.26,4.45,15.26,15.43Q132.51,107.38,132.5,199.31ZM25.12,373.68h4.66c24.21,0,48.42-.12,72.63.1,4.26,0,5.26-1.12,5.26-5.29q-.18-169.14-.09-338.26v-5H25.12Z"/><path class="cls-1" d="M307.34,199.16V383c0,11.11-4.45,15.55-15.62,15.56H190.45c-11.1,0-15.61-4.51-15.61-15.62V15.63C174.84,4.41,179.21,0,190.34,0H291.61c11.6,0,15.73,4.12,15.73,15.69ZM200,25.17c-.1,1.44-.26,2.65-.26,3.85q0,170.18-.09,340.34c0,3.49,1,4.41,4.46,4.39,24.76-.14,49.53-.07,74.29-.08,1.21,0,2.42-.15,3.71-.23V25.17Z"/></g></g></svg>